<?xml version="1.0" standalone="no"?><!DOCTYPE svg PUBLIC "-//W3C//DTD SVG 1.1//EN" "http://www.w3.org/Graphics/SVG/1.1/DTD/svg11.dtd"><svg t="1733311150586" class="icon" viewBox="0 0 1024 1024" version="1.1" xmlns="http://www.w3.org/2000/svg" p-id="1618" width="200" height="200" xmlns:xlink="http://www.w3.org/1999/xlink"><path d="M922.862933 308.974933a17.681067 17.681067 0 0 0-2.9696-1.911466l-49.493333-25.088V238.8992c0-38.912-51.370667-68.266667-119.466667-68.266667-28.091733 0-53.009067 5.188267-72.977066 13.789867l-46.4896-23.552V102.365867c0-38.912-51.370667-68.266667-119.466667-68.266667s-119.466667 29.354667-119.466667 68.266667v58.504533l-46.4896 23.586133C326.075733 175.854933 301.1584 170.666667 273.066667 170.666667c-68.096 0-119.466667 29.354667-119.466667 68.266666v43.076267l-49.493333 25.088a13.858133 13.858133 0 0 0-2.8672 1.877333c-30.9248 17.1008-50.005333 47.3088-50.005334 79.496534v315.357866c0 32.1536 19.0464 62.327467 49.937067 79.4624a16.725333 16.725333 0 0 0 2.56 1.706667l356.317867 192.8192a16.042667 16.042667 0 0 0 3.857066 1.467733 114.5856 114.5856 0 0 0 95.9488 0.1024 16.145067 16.145067 0 0 0 4.096-1.570133l356.317867-192.8192a15.872 15.872 0 0 0 2.491733-1.672533c30.9248-17.1008 50.005333-47.3088 50.005334-79.496534v-315.357866c0.034133-32.221867-19.012267-62.3616-49.902934-79.496534zM665.6 287.607467c21.333333 12.219733 51.234133 19.5584 85.333333 19.5584 34.0992 0 64-7.338667 85.333334-19.5584v53.691733c0 13.9264-33.245867 34.133333-85.333334 34.133333s-85.333333-20.206933-85.333333-34.133333V287.607467z m-238.933333-136.533334c21.333333 12.219733 51.234133 19.5584 85.333333 19.5584 34.0992 0 64-7.338667 85.333333-19.5584v53.691734c0 13.9264-33.245867 34.133333-85.333333 34.133333s-85.333333-20.206933-85.333333-34.133333V151.074133z m-238.933334 136.533334c21.333333 12.219733 51.234133 19.5584 85.333334 19.5584 34.0992 0 64-7.338667 85.333333-19.5584v53.691733c0 13.9264-33.245867 34.133333-85.333333 34.133333s-85.333333-20.206933-85.333334-34.133333V287.607467z m253.986134 283.579733a17.134933 17.134933 0 0 1-23.108267 7.031467l-256-136.533334a17.066667 17.066667 0 1 1 16.0768-30.139733l256 136.533333a17.066667 17.066667 0 0 1 7.031467 23.108267z m87.3472 299.178667a17.066667 17.066667 0 0 1-34.133334 0v-204.8a17.066667 17.066667 0 0 1 34.133334 0v204.8z m-17.066667-392.533334c-52.087467 0-85.333333-20.206933-85.333333-34.133333v-53.691733c21.333333 12.219733 51.234133 19.5584 85.333333 19.5584 34.0992 0 64-7.338667 85.333333-19.5584v53.691733c0 13.9264-33.245867 34.133333-85.333333 34.133333z m349.354667-36.1472l-256 136.533334a17.066667 17.066667 0 0 1-16.0768-30.139734l256-136.533333a17.066667 17.066667 0 1 1 16.0768 30.139733z" p-id="1619" fill="#0aa7e1"></path></svg>